Coordinates
version=1
nRows=27
nColumns=12
inDegrees=yes

Units are S.I. units (second, meters, Newtons, ...)
Angles are in degrees

endheader
time	SC_y	SC_z	SC_x	AC_y	AC_z	AC_x	GH_y	GH_z	GH_yy	EL_x	PS_y
       0.0              -39.06          9.809          63.01           52.9          -19.8          1.304         -15.56          7.849          65.55          119.4          72.61
   0.04405              -39.06          9.809          63.01           52.9          -19.8          1.303         -15.57          7.856          65.53          119.4          72.62
    0.0881              -39.06           9.81          63.01           52.9          -19.8          1.302         -15.57          7.863          65.52          119.4          72.63
    0.1322              -39.05          9.811           63.0           52.9          -19.8          1.301         -15.58           7.87           65.5          119.4          72.64
    0.1762              -39.05          9.812           63.0          52.89          -19.8            1.3         -15.59          7.878          65.48          119.4          72.66
    0.2203              -39.04          9.812           63.0          52.89          -19.8          1.299         -15.59          7.887          65.46          119.3          72.67
    0.2643              -39.04          9.813           63.0          52.89         -19.79          1.297          -15.6          7.896          65.43          119.3          72.69
    0.3084              -39.03          9.814          62.99          52.88         -19.79          1.296         -15.61          7.906          65.41          119.3           72.7
    0.3524              -39.03          9.815          62.99          52.88         -19.79          1.294         -15.62          7.916          65.38          119.3          72.72
    0.3965              -39.02          9.817          62.99          52.87         -19.79          1.292         -15.63          7.927          65.35          119.3          72.74
    0.4405              -39.01          9.818          62.98          52.87         -19.79          1.291         -15.64          7.939          65.32          119.2          72.76
    0.4846               -39.0          9.819          62.98          52.86         -19.79          1.289         -15.65          7.952          65.29          119.2          72.78
    0.5286               -39.0          9.821          62.97          52.86         -19.79          1.286         -15.66          7.966          65.26          119.2          72.81
    0.5727              -38.99          9.822          62.97          52.85         -19.78          1.284         -15.68          7.981          65.22          119.2          72.83
    0.6167              -38.98          9.824          62.96          52.85         -19.78          1.282         -15.69          7.998          65.18          119.1          72.86
    0.6608              -38.97          9.826          62.96          52.84         -19.78          1.279         -15.71          8.015          65.13          119.1          72.89
    0.7048              -38.96          9.827          62.95          52.83         -19.78          1.276         -15.72          8.034          65.08          119.0          72.92
    0.7489              -38.95           9.83          62.94          52.82         -19.77          1.273         -15.74          8.055          65.03          119.0          72.96
    0.7929              -38.93          9.832          62.94          52.81         -19.77          1.269         -15.76          8.078          64.97          119.0           73.0
     0.837              -38.92          9.834          62.93           52.8         -19.77          1.265         -15.78          8.103          64.91          118.9          73.04
     0.881               -38.9          9.837          62.92          52.79         -19.77          1.261         -15.81           8.13          64.84          118.9          73.08
    0.9251              -38.88           9.84          62.91          52.78         -19.76          1.256         -15.83          8.161          64.77          118.8          73.14
    0.9691              -38.86          9.844           62.9          52.77         -19.76          1.251         -15.86          8.194          64.68          118.7          73.19
     1.013              -38.84          9.848          62.89          52.75         -19.75          1.245          -15.9          8.231          64.59          118.7          73.26
     1.057              -38.82          9.852          62.87          52.74         -19.75          1.239         -15.93          8.272          64.49          118.6          73.32
     1.101              -38.79          9.856          62.86          52.72         -19.74          1.232         -15.97          8.318          64.37          118.5           73.4
     1.145              -38.76          9.862          62.84           52.7         -19.74          1.224         -16.02          8.369          64.24          118.4          73.49
